<?xml version="1.0" standalone="no"?><!DOCTYPE svg PUBLIC "-//W3C//DTD SVG 1.1//EN" "http://www.w3.org/Graphics/SVG/1.1/DTD/svg11.dtd"><svg t="1731917474681" class="icon" viewBox="0 0 1024 1024" version="1.1" xmlns="http://www.w3.org/2000/svg" p-id="1135" xmlns:xlink="http://www.w3.org/1999/xlink" width="200" height="200"><path d="M794.07 807.39H448.64c-9.56 0-17.07 7.51-17.07 17.07s7.51 17.07 17.07 17.07h345.77c9.56 0 17.07-7.51 17.07-17.07s-7.86-17.07-17.41-17.07z m36.86-488.11L699.52 187.53c-6.83-6.83-17.41-6.83-24.23 0L192.64 670.17a17.373 17.373 0 0 0-5.12 11.94v131.75c0 9.56 7.51 17.07 17.07 17.07h131.75c4.44 0 8.88-1.71 11.95-5.12l482.64-482.3c3.31-3.16 5.18-7.54 5.18-12.12 0-4.57-1.87-8.95-5.18-12.11zM329.17 797.15H221.65V689.63l334.16-334.17 107.52 107.52-334.16 334.17z m358.06-358.41L579.71 331.23l107.52-107.52 107.52 107.52-107.52 107.51z m0 0" p-id="1136" fill="#9A73B5"></path></svg>